<?xml version="1.0" encoding="utf-8"?>
<svg xmlns="http://www.w3.org/2000/svg" style="margin: auto; background: rgb(255, 251, 243); display: block; shape-rendering: auto;" width="280" height="263" preserveAspectRatio="xMidYMid">
<style type="text/css">
  text {
    text-anchor: middle; font-size: 80px; opacity: 0;
  }
</style>
<g style="transform-origin:140px 131.5px;transform:scale(1)">
<g transform="translate(140,131.5)">
  <g transform="translate(0,0)"><g class="path" style="transform: scale(0.91); transform-origin: -67.32px -5.64192px; animation: 1s linear -0.528s infinite normal forwards running breath-c0e566ba-4135-4089-bb1e-ed33f2deec5e;"><path d="M32.48 0.72L32.48 0.72L32.48 0.72Q25.44 0.72 24.80-5.28L24.80-5.28L24.80-5.28Q21.28 0.72 15.84 0.72L15.84 0.72L15.84 0.72Q10.40 0.72 7.52-2.36L7.52-2.36L7.52-2.36Q4.64-5.44 4.64-10.80L4.64-10.80L4.64-10.80Q4.64-20.24 9.12-25.68L9.12-25.68L9.12-25.68Q13.60-31.12 20.72-31.12L20.72-31.12L20.72-31.12Q24.80-31.12 27.04-28.64L27.04-28.64L27.04-28.64Q28-27.36 28.24-26.72L28.24-26.72L32.56-50.24L32.56-50.24Q30.16-50 28.56-48L28.56-48L27.36-48.96L27.36-48.96Q29.76-51.84 33.40-51.84L33.40-51.84L33.40-51.84Q37.04-51.84 39.04-50L39.04-50L39.04-50Q41.04-48.16 41.04-44.80L41.04-44.80L41.04-44.80Q41.04-44.16 40.88-42.72L40.88-42.72L40.88-42.72Q36.96-20.72 33.28-0.88L33.28-0.88L33.28-0.88Q35.68-1.12 37.28-3.12L37.28-3.12L38.48-2.16L38.48-2.16Q36.08 0.72 32.48 0.72zM13.68-7.52L13.68-7.52Q13.68-3.84 14.44-2.48L14.44-2.48L14.44-2.48Q15.20-1.12 16.84-1.12L16.84-1.12L16.84-1.12Q18.48-1.12 20-2.24L20-2.24L20-2.24Q21.52-3.36 22.56-5.12L22.56-5.12L22.56-5.12Q24.48-8.08 25.28-10.16L25.28-10.16L27.60-22.80L27.60-22.80Q27.44-25.36 25.92-27.48L25.92-27.48L25.92-27.48Q24.40-29.60 20.72-29.60L20.72-29.60L20.72-29.60Q18.16-29.60 15.92-22.08L15.92-22.08L15.92-22.08Q13.68-14.56 13.68-7.52L13.68-7.52" fill="#51cacc" stroke="none" stroke-width="none" transform="translate(-90.16000366210938,19.918078979492194)" style="fill: rgb(81, 202, 204);"></path></g><g class="path" style="transform: scale(0.91); transform-origin: -29.76px -5.64192px; animation: 1s linear -0.396s infinite normal forwards running breath-c0e566ba-4135-4089-bb1e-ed33f2deec5e;"><path d="M73.20-0.88L73.20-0.88L73.20-0.88Q75.12-0.88 77.20-3.12L77.20-3.12L78.40-2.16L78.40-2.16Q77.84-1.04 75.92-0.16L75.92-0.16L75.92-0.16Q74 0.72 71.68 0.72L71.68 0.72L71.68 0.72Q64.40 0.72 64.40-5.84L64.40-5.84L64.40-5.84Q64.40-8.64 65.84-15.84L65.84-15.84L65.84-15.84Q67.28-23.04 67.28-25.28L67.28-25.28L67.28-25.28Q67.28-28.72 64-28.72L64-28.72L64-28.72Q61.28-28.72 58.76-25.04L58.76-25.04L58.76-25.04Q56.24-21.36 54.64-15.04L54.64-15.04L52 0L42.40 0L51.28-50.24L51.28-50.24Q48.88-50 47.28-48L47.28-48L46.08-48.96L46.08-48.96Q48.48-51.84 52.12-51.84L52.12-51.84L52.12-51.84Q55.76-51.84 57.76-50L57.76-50L57.76-50Q59.76-48.16 59.76-44.80L59.76-44.80L59.76-44.80Q59.76-44.16 59.60-42.72L59.60-42.72L56.24-23.76L56.24-23.76Q59.52-31.12 66.40-31.12L66.40-31.12L66.40-31.12Q71.12-31.12 73.76-28.44L73.76-28.44L73.76-28.44Q76.40-25.76 76.40-21.04L76.40-21.04L76.40-21.04Q76.40-18.56 74.88-11.48L74.88-11.48L74.88-11.48Q73.36-4.40 73.20-0.88" fill="#51cacc" stroke="none" stroke-width="none" transform="translate(-90.16000366210938,19.918078979492194)" style="fill: rgb(157, 248, 113);"></path></g><g class="path" style="transform: scale(0.91); transform-origin: 7.03999px 4.35808px; animation: 1s linear -0.264s infinite normal forwards running breath-c0e566ba-4135-4089-bb1e-ed33f2deec5e;"><path d="M83.84-27.28L82.64-28.24L82.64-28.24Q85.04-31.12 88.68-31.12L88.68-31.12L88.68-31.12Q92.32-31.12 94.32-29.28L94.32-29.28L94.32-29.28Q96.32-27.44 96.32-24.08L96.32-24.08L96.32-23.60L96.32-23.60Q99.92-31.12 105.68-31.12L105.68-31.12L105.68-31.12Q111.84-31.12 111.84-24.72L111.84-24.72L111.84-24.72Q111.84-22.08 110.08-19.12L110.08-19.12L110.08-19.12Q108.32-16.16 106.56-13.48L106.56-13.48L106.56-13.48Q104.80-10.80 104.80-8.72L104.80-8.72L102.88-8.72L102.88-8.72Q102.88-11.68 106.32-16.72L106.32-16.72L106.32-16.72Q109.76-21.76 109.76-24.52L109.76-24.52L109.76-24.52Q109.76-27.28 108.68-28.28L108.68-28.28L108.68-28.28Q107.60-29.28 105.48-29.28L105.48-29.28L105.48-29.28Q103.36-29.28 101.32-27.44L101.32-27.44L101.32-27.44Q99.28-25.60 97.92-22.80L97.92-22.80L97.92-22.80Q95.76-18.64 95.04-16L95.04-16L95.04-15.92L92.16 0L82.56 0L87.84-29.52L87.84-29.52Q85.44-29.28 83.84-27.28L83.84-27.28" fill="#51cacc" stroke="none" stroke-width="none" transform="translate(-90.16000366210938,19.918078979492194)" style="fill: rgb(224, 255, 119);"></path></g><g class="path" style="transform: scale(0.91); transform-origin: 41px 4.71808px; animation: 1s linear -0.132s infinite normal forwards running breath-c0e566ba-4135-4089-bb1e-ed33f2deec5e;"><path d="M118.48-29.52L118.48-29.52L118.48-29.52Q116.56-29.52 114.48-27.28L114.48-27.28L113.28-28.24L113.28-28.24Q113.84-29.36 115.76-30.24L115.76-30.24L115.76-30.24Q117.68-31.12 120-31.12L120-31.12L120-31.12Q127.28-31.12 127.28-24.56L127.28-24.56L127.28-24.56Q127.28-21.76 125.84-14.56L125.84-14.56L125.84-14.56Q124.40-7.36 124.40-5.12L124.40-5.12L124.40-5.12Q124.40-1.68 127.68-1.68L127.68-1.68L127.68-1.68Q130-1.68 132.20-4.40L132.20-4.40L132.20-4.40Q134.40-7.12 136-11.92L136-11.92L139.36-30.40L139.36-30.40Q145.28-30.40 148-30.88L148-30.88L149.04-31.12L143.68-0.88L143.68-0.88Q146.08-1.12 147.68-3.12L147.68-3.12L148.88-2.16L148.88-2.16Q146.48 0.72 142.88 0.72L142.88 0.72L142.88 0.72Q139.28 0.72 137.28-1.04L137.28-1.04L137.28-1.04Q135.28-2.80 135.20-6L135.20-6L135.20-6Q131.84 0.72 125.28 0.72L125.28 0.72L125.28 0.72Q120.56 0.72 117.92-1.96L117.92-1.96L117.92-1.96Q115.28-4.64 115.28-9.36L115.28-9.36L115.28-9.36Q115.28-11.84 116.80-18.92L116.80-18.92L116.80-18.92Q118.32-26 118.48-29.52" fill="#51cacc" stroke="none" stroke-width="none" transform="translate(-90.16000366210938,19.918078979492194)" style="fill: rgb(222, 157, 214);"></path></g><g class="path" style="transform: scale(0.91); transform-origin: 78.84px 4.71808px; animation: 1s linear 0s infinite normal forwards running breath-c0e566ba-4135-4089-bb1e-ed33f2deec5e;"><path d="M174.40-21.20L174.40-21.20L174.40-21.20Q172.72-22.88 172.72-25.28L172.72-25.28L172.72-25.28Q172.72-27.68 174.40-29.40L174.40-29.40L174.40-29.40Q176.08-31.12 178.20-31.12L178.20-31.12L178.20-31.12Q180.32-31.12 181.80-30.04L181.80-30.04L181.80-30.04Q183.28-28.96 183.92-27.28L183.92-27.28L183.92-27.28Q184-27.20 184-27.12L184-27.12L184-27.04L184-27.04Q184.96-24.96 184.96-21L184.96-21L184.96-21Q184.96-17.04 184.04-13.76L184.04-13.76L184.04-13.76Q183.12-10.48 181.24-7.08L181.24-7.08L181.24-7.08Q179.36-3.68 175.76-1.48L175.76-1.48L175.76-1.48Q172.16 0.72 167.28 0.72L167.28 0.72L167.28 0.72Q162.40 0.72 159.16-2.48L159.16-2.48L159.16-2.48Q155.92-5.68 155.92-9.84L155.92-9.84L155.92-9.84Q155.92-14 157.40-20.12L157.40-20.12L157.40-20.12Q158.88-26.24 159.04-29.52L159.04-29.52L159.04-29.52Q157.76-29.44 156.56-28.60L156.56-28.60L156.56-28.60Q155.36-27.76 154.80-26.96L154.80-26.96L154.24-26.16L153.04-27.12L153.04-27.12Q153.28-27.60 153.76-28.24L153.76-28.24L153.76-28.24Q154.24-28.88 156.20-30L156.20-30L156.20-30Q158.16-31.12 161.12-31.12L161.12-31.12L161.12-31.12Q164.08-31.12 165.88-29.20L165.88-29.20L165.88-29.20Q167.68-27.28 167.68-24.32L167.68-24.32L167.68-24.32Q167.68-21.36 166.08-15.16L166.08-15.16L166.08-15.16Q164.48-8.96 164.48-6.44L164.48-6.44L164.48-6.44Q164.48-3.92 165.64-2.48L165.64-2.48L165.64-2.48Q166.80-1.04 168.96-1.04L168.96-1.04L168.96-1.04Q174.32-1.04 178.72-6.88L178.72-6.88L178.72-6.88Q183.12-12.72 183.12-19.92L183.12-19.92L183.12-19.92Q183.12-20.48 182.96-21.60L182.96-21.60L182.96-21.60Q181.28-19.52 178.68-19.52L178.68-19.52L178.68-19.52Q176.08-19.52 174.40-21.20" fill="#51cacc" stroke="none" stroke-width="none" transform="translate(-90.16000366210938,19.918078979492194)" style="fill: rgb(255, 112, 142);"></path></g></g>
</g>
</g>
<style id="breath-c0e566ba-4135-4089-bb1e-ed33f2deec5e" data-anikit="">@keyframes breath-c0e566ba-4135-4089-bb1e-ed33f2deec5e
{
  0% {
    animation-timing-function: cubic-bezier(0.9647,0.2413,-0.0705,0.7911);
    transform: scale(0.9099999999999999);
  }
  51% {
    animation-timing-function: cubic-bezier(0.9226,0.2631,-0.0308,0.7628);
    transform: scale(1.02994);
  }
  100% {
    transform: scale(0.9099999999999999);
  }
}</style></svg>