<?xml version="1.0" encoding="utf-8"?>
<svg xmlns="http://www.w3.org/2000/svg" style="margin: auto; background: none; display: block; shape-rendering: auto;" width="280" height="250" preserveAspectRatio="xMidYMid">
<style type="text/css">
  text {
    text-anchor: middle; font-size: 60px; opacity: 0;
  }
</style>
<g style="transform-origin: 140px 125px; transform: scale(0.75);">
<g transform="translate(140,125)">
  <g transform="translate(0,0)"><g class="path" style="transform: scale(0.91); transform-origin: -148.88px -5.6176px; animation: 1s linear -0.622222s infinite normal forwards running breath-c3005a91-762e-4293-b6d3-44045369c1a8;"><path d="M32.48 0.72L32.48 0.72L32.48 0.72Q25.44 0.72 24.80-5.28L24.80-5.28L24.80-5.28Q21.28 0.72 15.84 0.72L15.84 0.72L15.84 0.72Q10.40 0.72 7.52-2.36L7.52-2.36L7.52-2.36Q4.64-5.44 4.64-10.80L4.64-10.80L4.64-10.80Q4.64-20.24 9.12-25.68L9.12-25.68L9.12-25.68Q13.60-31.12 20.72-31.12L20.72-31.12L20.72-31.12Q24.80-31.12 27.04-28.64L27.04-28.64L27.04-28.64Q28-27.36 28.24-26.72L28.24-26.72L32.56-50.24L32.56-50.24Q30.16-50 28.56-48L28.56-48L27.36-48.96L27.36-48.96Q29.76-51.84 33.40-51.84L33.40-51.84L33.40-51.84Q37.04-51.84 39.04-50L39.04-50L39.04-50Q41.04-48.16 41.04-44.80L41.04-44.80L41.04-44.80Q41.04-44.16 40.88-42.72L40.88-42.72L40.88-42.72Q36.96-20.72 33.28-0.88L33.28-0.88L33.28-0.88Q35.68-1.12 37.28-3.12L37.28-3.12L38.48-2.16L38.48-2.16Q36.08 0.72 32.48 0.72zM13.68-7.52L13.68-7.52Q13.68-3.84 14.44-2.48L14.44-2.48L14.44-2.48Q15.20-1.12 16.84-1.12L16.84-1.12L16.84-1.12Q18.48-1.12 20-2.24L20-2.24L20-2.24Q21.52-3.36 22.56-5.12L22.56-5.12L22.56-5.12Q24.48-8.08 25.28-10.16L25.28-10.16L27.60-22.80L27.60-22.80Q27.44-25.36 25.92-27.48L25.92-27.48L25.92-27.48Q24.40-29.60 20.72-29.60L20.72-29.60L20.72-29.60Q18.16-29.60 15.92-22.08L15.92-22.08L15.92-22.08Q13.68-14.56 13.68-7.52L13.68-7.52" fill="#93dbe9" stroke="none" stroke-width="none" transform="translate(-171.719970703125,19.94239902072483)" style="fill: rgb(147, 219, 233);"></path></g><g class="path" style="transform: scale(0.91); transform-origin: -111.32px -5.6176px; animation: 1s linear -0.544444s infinite normal forwards running breath-c3005a91-762e-4293-b6d3-44045369c1a8;"><path d="M73.20-0.88L73.20-0.88L73.20-0.88Q75.12-0.88 77.20-3.12L77.20-3.12L78.40-2.16L78.40-2.16Q77.84-1.04 75.92-0.16L75.92-0.16L75.92-0.16Q74 0.72 71.68 0.72L71.68 0.72L71.68 0.72Q64.40 0.72 64.40-5.84L64.40-5.84L64.40-5.84Q64.40-8.64 65.84-15.84L65.84-15.84L65.84-15.84Q67.28-23.04 67.28-25.28L67.28-25.28L67.28-25.28Q67.28-28.72 64-28.72L64-28.72L64-28.72Q61.28-28.72 58.76-25.04L58.76-25.04L58.76-25.04Q56.24-21.36 54.64-15.04L54.64-15.04L52 0L42.40 0L51.28-50.24L51.28-50.24Q48.88-50 47.28-48L47.28-48L46.08-48.96L46.08-48.96Q48.48-51.84 52.12-51.84L52.12-51.84L52.12-51.84Q55.76-51.84 57.76-50L57.76-50L57.76-50Q59.76-48.16 59.76-44.80L59.76-44.80L59.76-44.80Q59.76-44.16 59.60-42.72L59.60-42.72L56.24-23.76L56.24-23.76Q59.52-31.12 66.40-31.12L66.40-31.12L66.40-31.12Q71.12-31.12 73.76-28.44L73.76-28.44L73.76-28.44Q76.40-25.76 76.40-21.04L76.40-21.04L76.40-21.04Q76.40-18.56 74.88-11.48L74.88-11.48L74.88-11.48Q73.36-4.40 73.20-0.88" fill="#93dbe9" stroke="none" stroke-width="none" transform="translate(-171.719970703125,19.94239902072483)" style="fill: rgb(104, 156, 197);"></path></g><g class="path" style="transform: scale(0.91); transform-origin: -74.52px 4.3824px; animation: 1s linear -0.466667s infinite normal forwards running breath-c3005a91-762e-4293-b6d3-44045369c1a8;"><path d="M83.84-27.28L82.64-28.24L82.64-28.24Q85.04-31.12 88.68-31.12L88.68-31.12L88.68-31.12Q92.32-31.12 94.32-29.28L94.32-29.28L94.32-29.28Q96.32-27.44 96.32-24.08L96.32-24.08L96.32-23.60L96.32-23.60Q99.92-31.12 105.68-31.12L105.68-31.12L105.68-31.12Q111.84-31.12 111.84-24.72L111.84-24.72L111.84-24.72Q111.84-22.08 110.08-19.12L110.08-19.12L110.08-19.12Q108.32-16.16 106.56-13.48L106.56-13.48L106.56-13.48Q104.80-10.80 104.80-8.72L104.80-8.72L102.88-8.72L102.88-8.72Q102.88-11.68 106.32-16.72L106.32-16.72L106.32-16.72Q109.76-21.76 109.76-24.52L109.76-24.52L109.76-24.52Q109.76-27.28 108.68-28.28L108.68-28.28L108.68-28.28Q107.60-29.28 105.48-29.28L105.48-29.28L105.48-29.28Q103.36-29.28 101.32-27.44L101.32-27.44L101.32-27.44Q99.28-25.60 97.92-22.80L97.92-22.80L97.92-22.80Q95.76-18.64 95.04-16L95.04-16L95.04-15.92L92.16 0L82.56 0L87.84-29.52L87.84-29.52Q85.44-29.28 83.84-27.28L83.84-27.28" fill="#93dbe9" stroke="none" stroke-width="none" transform="translate(-171.719970703125,19.94239902072483)" style="fill: rgb(94, 111, 163);"></path></g><g class="path" style="transform: scale(0.91); transform-origin: -40.56px 4.7424px; animation: 1s linear -0.388889s infinite normal forwards running breath-c3005a91-762e-4293-b6d3-44045369c1a8;"><path d="M118.48-29.52L118.48-29.52L118.48-29.52Q116.56-29.52 114.48-27.28L114.48-27.28L113.28-28.24L113.28-28.24Q113.84-29.36 115.76-30.24L115.76-30.24L115.76-30.24Q117.68-31.12 120-31.12L120-31.12L120-31.12Q127.28-31.12 127.28-24.56L127.28-24.56L127.28-24.56Q127.28-21.76 125.84-14.56L125.84-14.56L125.84-14.56Q124.40-7.36 124.40-5.12L124.40-5.12L124.40-5.12Q124.40-1.68 127.68-1.68L127.68-1.68L127.68-1.68Q130-1.68 132.20-4.40L132.20-4.40L132.20-4.40Q134.40-7.12 136-11.92L136-11.92L139.36-30.40L139.36-30.40Q145.28-30.40 148-30.88L148-30.88L149.04-31.12L143.68-0.88L143.68-0.88Q146.08-1.12 147.68-3.12L147.68-3.12L148.88-2.16L148.88-2.16Q146.48 0.72 142.88 0.72L142.88 0.72L142.88 0.72Q139.28 0.72 137.28-1.04L137.28-1.04L137.28-1.04Q135.28-2.80 135.20-6L135.20-6L135.20-6Q131.84 0.72 125.28 0.72L125.28 0.72L125.28 0.72Q120.56 0.72 117.92-1.96L117.92-1.96L117.92-1.96Q115.28-4.64 115.28-9.36L115.28-9.36L115.28-9.36Q115.28-11.84 116.80-18.92L116.80-18.92L116.80-18.92Q118.32-26 118.48-29.52" fill="#93dbe9" stroke="none" stroke-width="none" transform="translate(-171.719970703125,19.94239902072483)" style="fill: rgb(59, 67, 104);"></path></g><g class="path" style="transform: scale(0.91); transform-origin: -2.71997px 4.7424px; animation: 1s linear -0.311111s infinite normal forwards running breath-c3005a91-762e-4293-b6d3-44045369c1a8;"><path d="M174.40-21.20L174.40-21.20L174.40-21.20Q172.72-22.88 172.72-25.28L172.72-25.28L172.72-25.28Q172.72-27.68 174.40-29.40L174.40-29.40L174.40-29.40Q176.08-31.12 178.20-31.12L178.20-31.12L178.20-31.12Q180.32-31.12 181.80-30.04L181.80-30.04L181.80-30.04Q183.28-28.96 183.92-27.28L183.92-27.28L183.92-27.28Q184-27.20 184-27.12L184-27.12L184-27.04L184-27.04Q184.96-24.96 184.96-21L184.96-21L184.96-21Q184.96-17.04 184.04-13.76L184.04-13.76L184.04-13.76Q183.12-10.48 181.24-7.08L181.24-7.08L181.24-7.08Q179.36-3.68 175.76-1.48L175.76-1.48L175.76-1.48Q172.16 0.72 167.28 0.72L167.28 0.72L167.28 0.72Q162.40 0.72 159.16-2.48L159.16-2.48L159.16-2.48Q155.92-5.68 155.92-9.84L155.92-9.84L155.92-9.84Q155.92-14 157.40-20.12L157.40-20.12L157.40-20.12Q158.88-26.24 159.04-29.52L159.04-29.52L159.04-29.52Q157.76-29.44 156.56-28.60L156.56-28.60L156.56-28.60Q155.36-27.76 154.80-26.96L154.80-26.96L154.24-26.16L153.04-27.12L153.04-27.12Q153.28-27.60 153.76-28.24L153.76-28.24L153.76-28.24Q154.24-28.88 156.20-30L156.20-30L156.20-30Q158.16-31.12 161.12-31.12L161.12-31.12L161.12-31.12Q164.08-31.12 165.88-29.20L165.88-29.20L165.88-29.20Q167.68-27.28 167.68-24.32L167.68-24.32L167.68-24.32Q167.68-21.36 166.08-15.16L166.08-15.16L166.08-15.16Q164.48-8.96 164.48-6.44L164.48-6.44L164.48-6.44Q164.48-3.92 165.64-2.48L165.64-2.48L165.64-2.48Q166.80-1.04 168.96-1.04L168.96-1.04L168.96-1.04Q174.32-1.04 178.72-6.88L178.72-6.88L178.72-6.88Q183.12-12.72 183.12-19.92L183.12-19.92L183.12-19.92Q183.12-20.48 182.96-21.60L182.96-21.60L182.96-21.60Q181.28-19.52 178.68-19.52L178.68-19.52L178.68-19.52Q176.08-19.52 174.40-21.20" fill="#93dbe9" stroke="none" stroke-width="none" transform="translate(-171.719970703125,19.94239902072483)" style="fill: rgb(25, 29, 58);"></path></g><g class="path" style="transform: scale(0.91); transform-origin: 45.48px 2.9024px; animation: 1s linear -0.233333s infinite normal forwards running breath-c3005a91-762e-4293-b6d3-44045369c1a8;"><path d="M213.28-1.36L213.28-1.36L213.28-1.36Q221.20-1.36 221.20-13.04L221.20-13.04L221.20-13.04Q221.20-15.92 220.36-19.84L220.36-19.84L220.36-19.84Q219.52-23.76 219.36-24.72L219.36-24.72L219.36-24.72Q214.48-19.68 208.40-18.64L208.40-18.64L208.40-20.56L208.40-20.56Q214.16-21.84 219.20-27.12L219.20-27.12L219.20-27.44L219.20-27.44Q219.20-29.36 219.76-31.20L219.76-31.20L219.76-31.20Q220.32-33.04 220.88-33.92L220.88-33.92L221.44-34.80L223.36-34.80L223.36-34.80Q223.36-31.28 224.48-28.36L224.48-28.36L224.48-28.36Q225.60-25.44 226.96-23.64L226.96-23.64L226.96-23.64Q228.32-21.84 229.44-18.92L229.44-18.92L229.44-18.92Q230.56-16 230.56-12.48L230.56-12.48L230.56-12.48Q230.56-6.80 226.28-3.04L226.28-3.04L226.28-3.04Q222 0.72 216 0.72L216 0.72L216 0.72Q210 0.72 206.92-2L206.92-2L206.92-2Q203.84-4.72 203.84-8.28L203.84-8.28L203.84-8.28Q203.84-11.84 205.60-13.40L205.60-13.40L205.60-13.40Q207.36-14.96 209.76-14.96L209.76-14.96L209.76-14.96Q212.16-14.96 213.72-13.40L213.72-13.40L213.72-13.40Q215.28-11.84 215.28-9.40L215.28-9.40L215.28-9.40Q215.28-6.96 213.76-5.28L213.76-5.28L213.76-5.28Q212.24-3.60 209.84-3.60L209.84-3.60L209.84-3.60Q208.80-3.60 207.68-3.92L207.68-3.92L207.68-3.92Q209.44-1.36 213.28-1.36" fill="#93dbe9" stroke="none" stroke-width="none" transform="translate(-171.719970703125,19.94239902072483)" style="fill: rgb(217, 219, 238);"></path></g><g class="path" style="transform: scale(0.91); transform-origin: 80.68px -5.6176px; animation: 1s linear -0.155556s infinite normal forwards running breath-c3005a91-762e-4293-b6d3-44045369c1a8;"><path d="M265.20-0.88L265.20-0.88L265.20-0.88Q267.12-0.88 269.20-3.12L269.20-3.12L270.40-2.16L270.40-2.16Q269.84-1.04 267.92-0.16L267.92-0.16L267.92-0.16Q266 0.72 263.68 0.72L263.68 0.72L263.68 0.72Q256.40 0.72 256.40-5.84L256.40-5.84L256.40-5.84Q256.40-8.64 257.84-15.84L257.84-15.84L257.84-15.84Q259.28-23.04 259.28-25.28L259.28-25.28L259.28-25.28Q259.28-28.72 256-28.72L256-28.72L256-28.72Q253.28-28.72 250.76-25.04L250.76-25.04L250.76-25.04Q248.24-21.36 246.64-15.04L246.64-15.04L244 0L234.40 0L243.28-50.24L243.28-50.24Q240.88-50 239.28-48L239.28-48L238.08-48.96L238.08-48.96Q240.48-51.84 244.12-51.84L244.12-51.84L244.12-51.84Q247.76-51.84 249.76-50L249.76-50L249.76-50Q251.76-48.16 251.76-44.80L251.76-44.80L251.76-44.80Q251.76-44.16 251.60-42.72L251.60-42.72L248.24-23.76L248.24-23.76Q251.52-31.12 258.40-31.12L258.40-31.12L258.40-31.12Q263.12-31.12 265.76-28.44L265.76-28.44L265.76-28.44Q268.40-25.76 268.40-21.04L268.40-21.04L268.40-21.04Q268.40-18.56 266.88-11.48L266.88-11.48L266.88-11.48Q265.36-4.40 265.20-0.88" fill="#93dbe9" stroke="none" stroke-width="none" transform="translate(-171.719970703125,19.94239902072483)" style="fill: rgb(179, 183, 226);"></path></g><g class="path" style="transform: scale(0.91); transform-origin: 119.72px 4.7424px; animation: 1s linear -0.0777778s infinite normal forwards running breath-c3005a91-762e-4293-b6d3-44045369c1a8;"><path d="M302.40 0.72L302.40 0.72L302.40 0.72Q295.36 0.72 294.72-5.44L294.72-5.44L294.72-5.44Q291.20 0.72 285.84 0.72L285.84 0.72L285.84 0.72Q280.48 0.72 277.32-2.52L277.32-2.52L277.32-2.52Q274.16-5.76 274.16-11.60L274.16-11.60L274.16-11.60Q274.16-20.72 278.64-25.92L278.64-25.92L278.64-25.92Q283.12-31.12 290.24-31.12L290.24-31.12L290.24-31.12Q296.08-31.12 298-25.60L298-25.60L298-25.60Q298.40-28 298.88-30.40L298.88-30.40L298.88-30.40Q304.80-30.40 307.68-30.88L307.68-30.88L308.72-31.12L303.20-0.88L303.20-0.88Q305.60-1.12 307.20-3.12L307.20-3.12L308.40-2.16L308.40-2.16Q306 0.72 302.40 0.72zM283.20-7.52L283.20-7.52Q283.20-3.92 284.12-2.52L284.12-2.52L284.12-2.52Q285.04-1.12 286.96-1.12L286.96-1.12L286.96-1.12Q288.88-1.12 290.88-3.20L290.88-3.20L290.88-3.20Q293.52-5.92 295.12-10.08L295.12-10.08L295.12-10.08Q295.36-11.12 296.04-15.08L296.04-15.08L296.04-15.08Q296.72-19.04 297.20-21.60L297.20-21.60L297.20-21.60Q296.96-24.64 295.52-26.88L295.52-26.88L295.52-26.88Q294.08-29.12 291.92-29.12L291.92-29.12L291.92-29.12Q288-29.12 285.60-22.12L285.60-22.12L285.60-22.12Q283.20-15.12 283.20-7.52L283.20-7.52" fill="#93dbe9" stroke="none" stroke-width="none" transform="translate(-171.719970703125,19.94239902072483)" style="fill: rgb(147, 219, 233);"></path></g><g class="path" style="transform: scale(0.91); transform-origin: 158.36px -5.6176px; animation: 1s linear 0s infinite normal forwards running breath-c3005a91-762e-4293-b6d3-44045369c1a8;"><path d="M342.88-0.88L342.88-0.88L342.88-0.88Q344.80-0.88 346.88-3.12L346.88-3.12L348.08-2.16L348.08-2.16Q347.52-1.04 345.60-0.16L345.60-0.16L345.60-0.16Q343.68 0.72 341.36 0.72L341.36 0.72L341.36 0.72Q334.08 0.72 334.08-5.84L334.08-5.84L334.08-5.84Q334.08-8.64 335.52-15.84L335.52-15.84L335.52-15.84Q336.96-23.04 336.96-25.28L336.96-25.28L336.96-25.28Q336.96-28.72 333.68-28.72L333.68-28.72L333.68-28.72Q330.96-28.72 328.44-25.04L328.44-25.04L328.44-25.04Q325.92-21.36 324.32-15.04L324.32-15.04L321.68 0L312.08 0L320.96-50.24L320.96-50.24Q318.56-50 316.96-48L316.96-48L315.76-48.96L315.76-48.96Q318.16-51.84 321.80-51.84L321.80-51.84L321.80-51.84Q325.44-51.84 327.44-50L327.44-50L327.44-50Q329.44-48.16 329.44-44.80L329.44-44.80L329.44-44.80Q329.44-44.16 329.28-42.72L329.28-42.72L325.92-23.76L325.92-23.76Q329.20-31.12 336.08-31.12L336.08-31.12L336.08-31.12Q340.80-31.12 343.44-28.44L343.44-28.44L343.44-28.44Q346.08-25.76 346.08-21.04L346.08-21.04L346.08-21.04Q346.08-18.56 344.56-11.48L344.56-11.48L344.56-11.48Q343.04-4.40 342.88-0.88" fill="#93dbe9" stroke="none" stroke-width="none" transform="translate(-171.719970703125,19.94239902072483)" style="fill: rgb(104, 156, 197);"></path></g></g>
</g>
</g>
<style id="breath-c3005a91-762e-4293-b6d3-44045369c1a8" data-anikit="">@keyframes breath-c3005a91-762e-4293-b6d3-44045369c1a8
{
  0% {
    animation-timing-function: cubic-bezier(0.9647,0.2413,-0.0705,0.7911);
    transform: scale(0.9099999999999999);
  }
  51% {
    animation-timing-function: cubic-bezier(0.9226,0.2631,-0.0308,0.7628);
    transform: scale(1.02994);
  }
  100% {
    transform: scale(0.9099999999999999);
  }
}</style></svg>